<?xml version="1.0" encoding="UTF-8"?>
<!-- Generator: Adobe Illustrator 22.1.0, SVG Export Plug-In . SVG Version: 6.00 Build 0)  -->
<svg version="1.1" id="Lager_1" xmlns="http://www.w3.org/2000/svg" xmlns:xlink="http://www.w3.org/1999/xlink" x="0px" y="0px" viewBox="0 0 839.5 425.2" style="enable-background:new 0 0 839.5 425.2;" xml:space="preserve">
<style type="text/css">
	.st0{fill:#0058A3;}
	.st1{fill:#FFDB00;}
	.st2{fill:none;}
</style>
<title>IKEA_2018_sRGB_25</title>
<path class="st0" d="M768.6,354.3H70.9V70.9h697.8v283.4H768.6z"/>
<path class="st1" d="M84.5,212.6C84.5,281.1,225,338,419.8,338S755,281.1,755,212.6S614.5,87.2,419.8,87.2S84.5,144.1,84.5,212.6z"/>
<path class="st0" d="M306.8,158.1c-1.5,3-1.5,5.9-1.5,8.9v37.5c0,0,20.1-26.1,24.7-32.3c3.5-4.6,7.8-11.1,7.8-14.1h65.6  c-4.5,3-9.5,8.4-13.6,13.4c-3.6,4.4-24,29.3-24,29.3s30.3,46.1,34.2,52c2.2,3.2,4.6,6.2,7.4,8.9h-75.5c0-3-2.9-9.1-6.1-13.9  s-20.5-31.1-20.5-31.1v36.1c0,3,0,5.9,1.5,8.9h-62.9c1.5-3,1.5-5.9,1.5-8.9V167c0-3,0-5.9-1.5-8.9H306.8z M539.7,158.1H418.3  c1.5,3,1.5,5.9,1.5,8.9v85.8c0,3,0,5.9-1.5,8.9h121.4V233c-3,1.5-5.9,1.5-8.9,1.5h-51.1v-13.6h49.1V199h-49.1v-13.7h51.1  c3,0,5.9,0,8.9,1.4V158.1z M707.9,252.8c1,3.3,2.7,6.3,4.9,8.9H647c0.3-3-0.8-5.9-2-8.9c0,0-1-2.4-2.4-5.9l-0.6-1.5h-37.9l-0.6,1.6  c0,0-1.1,2.9-2.1,5.9s-2.1,5.9-1.7,8.9h-51.9c2.1-2.6,3.7-5.6,4.7-8.9l31.1-85.8c1.1-3,2.2-5.9,1.8-8.9h87.7c-0.8,3,0.8,5.9,1.9,8.9  C677.6,173.6,705.7,247,707.9,252.8 M633.7,223.5l-9.2-24c-0.8-2.2-1.5-4.5-2-6.8c-0.4,2.3-1,4.6-1.8,6.8c-0.3,1-4.2,11.5-8.7,24  H633.7z M212.6,167c0-3,0-5.9,1.5-8.9h-68.4c1.5,3,1.5,5.9,1.5,8.9v85.8c0,3,0,5.9-1.5,8.9h68.4c-1.5-3-1.5-5.9-1.5-8.9V167z   M686.9,166.3c-0.2,7.5,5.7,13.8,13.3,14c7.5,0.2,13.8-5.7,14-13.3c0-0.2,0-0.5,0-0.7c0.1-7.4-5.7-13.5-13.1-13.6  c-0.2,0-0.3,0-0.5,0c-7.3-0.3-13.4,5.4-13.6,12.7C686.8,165.7,686.8,166,686.9,166.3 M711.4,166.3c0.2,6-4.6,11.1-10.6,11.2  c-6,0.2-11.1-4.6-11.2-10.6c0-0.2,0-0.4,0-0.7c-0.2-5.8,4.3-10.7,10.1-10.9c0.3,0,0.5,0,0.8,0c5.9-0.1,10.8,4.6,10.9,10.5  C711.4,166,711.4,166.2,711.4,166.3 M707.2,174.5h-2.7l-3.2-5.8h-3.5v5.8h-2.4v-16.4h6.1c2.9,0.1,5.1,2.4,5.1,5.3  c0,2-1.1,3.8-2.9,4.8L707.2,174.5z M701.1,166.3c1.6,0.1,3-1.1,3-2.7s-1.1-3-2.7-3c-0.1,0-0.2,0-0.3,0h-3.3v5.8h3.3"/>
</svg>